<mxfile host="app.diagrams.net" modified="2023-11-22T08:17:46.695Z" agent="Mozilla/5.0 (Macintosh; Intel Mac OS X 10_15_7) AppleWebKit/537.36 (KHTML, like Gecko) Chrome/119.0.0.0 Safari/537.36" etag="J_D4DDDDeB7TUd14f_q2" version="22.1.3" type="github">
  <diagram name="Page-1" id="SY4ONt_BNIMv0khymfzX">
    <mxGraphModel dx="2133" dy="732" grid="1" gridSize="10" guides="1" tooltips="1" connect="1" arrows="1" fold="1" page="1" pageScale="1" pageWidth="827" pageHeight="1169" math="0" shadow="0">
      <root>
        <mxCell id="0" />
        <mxCell id="1" parent="0" />
        <mxCell id="TdJaC_BdT68Y_EVu2266-1" value="" style="shape=image;verticalLabelPosition=bottom;labelBackgroundColor=default;verticalAlign=top;aspect=fixed;imageAspect=0;image=https://intranetproxy.alipay.com/skylark/lark/0/2019/jpeg/2298/1559814570303-74bc057b-ea01-4a85-80de-662a1c1bad30.jpeg;" vertex="1" parent="1">
          <mxGeometry x="-140" y="10" width="1129" height="1200" as="geometry" />
        </mxCell>
      </root>
    </mxGraphModel>
  </diagram>
</mxfile>
